<svg xmlns="http://www.w3.org/2000/svg" viewBox="0 0 38 38" width="38" height="38">
  <rect width="38" height="38" rx="7" fill="#FFFFFF"/>
  <g transform="translate(4,3.5) scale(0.375)">
    <path d="M80.8578804,34.6141235 L53.9052976,34.6141235 C53.0079411,34.6197852 52.1456976,34.2658148 51.5111581,33.6312753 C50.8766186,32.9967358 50.5226483,32.1344923 50.52831,31.2371358 L50.52831,4.28455309 C50.5283277,3.390849 50.1718668,2.5340532 49.5379447,1.90409309 C48.9040226,1.27413298 48.0450087,0.923050824 47.1513223,0.928671605 L37.0625717,0.928671605 C36.1688853,0.923050824 35.3098715,1.27413298 34.6759494,1.90409309 C34.0420273,2.5340532 33.6855664,3.390849 33.6855841,4.28455309 L33.6855841,31.2371358 C33.6912458,32.1344923 33.3372754,32.9967358 32.7027359,33.6312753 C32.0681964,34.2658148 31.2059529,34.6197852 30.3085964,34.6141235 L20.2198458,34.6141235 C19.3224893,34.6197852 18.4602458,34.2658148 17.8257063,33.6312753 C17.1911668,32.9967358 16.8371964,32.1344923 16.8428581,31.2371358 L16.8428581,4.28455309 C16.8485199,3.38719658 16.4945495,2.52495307 15.86001,1.89041357 C15.2254705,1.25587407 14.363227,0.901903707 13.4658705,0.907498544 L3.3560137,0.907498544 C2.46230961,0.907498544 1.60551381,1.26400863 0.975553704,1.89793075 C0.345593597,2.53185287 -0.00548856313,3.39086668 6.53290055e-05,4.28455309 L6.53290055e-05,81.7864198 C-0.00552950716,82.6837763 0.348440856,83.5460198 0.982980353,84.1805593 C1.61751985,84.8150988 2.47976337,85.1690691 3.37711987,85.1634743 L80.8578804,85.1634743 C81.7552369,85.1690691 82.6174804,84.8150988 83.2520199,84.1805593 C83.8865594,83.5460198 84.2405297,82.6837763 84.234868,81.7864198 L84.234868,38.0544296 C84.257744,37.1461849 83.9113891,36.2674751 83.2749537,35.6191065 C82.6385183,34.9707379 81.7663934,34.6081214 80.8578804,34.6141235 Z M67.3077616,63.2340938 C67.3133304,64.5755985 66.78435,65.864084 65.837737,66.8146577 C64.8911241,67.7652313 63.6048585,68.2995753 62.2633421,68.2995753 L55.5093668,68.2995753 C54.1678504,68.2995753 52.8815848,67.7652313 51.9349719,66.8146577 C50.9883589,65.864084 50.4593784,64.5755985 50.4649473,63.2340938 L50.4649473,56.5012247 C50.4593784,55.15972 50.9883589,53.8712345 51.9349719,52.9206609 C52.8815848,51.9700872 54.1678504,51.4357432 55.5093668,51.4357432 L62.2633421,51.4357432 C63.6048585,51.4357432 64.8911241,51.9700872 65.837737,52.9206609 C66.78435,53.8712345 67.3133304,55.15972 67.3077616,56.5012247 L67.3077616,63.2340938 L67.3077616,63.2340938 Z" fill="#FF6600"/>
  </g>
</svg>