<svg xmlns="http://www.w3.org/2000/svg" viewBox="0 0 38 38" width="38" height="38">
  <rect width="38" height="38" rx="7" fill="#0D1117"/>
  <!-- Service hexagons -->
  <polygon points="19,4 25,7.5 25,14.5 19,18 13,14.5 13,7.5" fill="none" stroke="#3B82F6" stroke-width="1.5"/>
  <polygon points="8,16 14,19.5 14,26.5 8,30 2,26.5 2,19.5" fill="none" stroke="#10B981" stroke-width="1.5"/>
  <polygon points="30,16 36,19.5 36,26.5 30,30 24,26.5 24,19.5" fill="none" stroke="#F59E0B" stroke-width="1.5"/>
  <!-- Connection lines -->
  <line x1="13" y1="14.5" x2="8" y2="17" stroke="#6B7280" stroke-width="1" stroke-dasharray="2,1.5"/>
  <line x1="25" y1="14.5" x2="30" y2="17" stroke="#6B7280" stroke-width="1" stroke-dasharray="2,1.5"/>
  <line x1="14" y1="23" x2="24" y2="23" stroke="#6B7280" stroke-width="1" stroke-dasharray="2,1.5"/>
  <!-- Center dots -->
  <circle cx="19" cy="11" r="1.5" fill="#3B82F6"/>
  <circle cx="8" cy="23" r="1.5" fill="#10B981"/>
  <circle cx="30" cy="23" r="1.5" fill="#F59E0B"/>
</svg>